<svg width="120" height="120" viewBox="0 0 150 150" fill="none" xmlns="http://www.w3.org/2000/svg">
<circle cx="46.0715" cy="41.9286" r="15" fill="#DE8A28" stroke="black" stroke-width="3"/>
<circle cx="88.5" cy="41.9286" r="15" fill="#DE8A28" stroke="black" stroke-width="3"/>
<path d="M54.877 86.1991L55.4495 86.6874L65.786 95.5044L74.9126 86.7463L75.5146 86.1686L76.323 86.3754C77.99 86.802 81.8003 87.8084 83.3834 88.3485L85.6331 89.1161L83.972 90.8164C83.6235 91.1731 83.2526 91.521 82.8675 91.8823C81.6778 92.9985 80.3519 94.2423 79.1302 96.2661C77.5559 98.8741 76.1879 102.799 76.1879 109.164C76.1879 122.113 82.5576 128.405 86.9877 131.909L90.3716 134.586H86.0571H41.8435H40.3435V133.086V116.276C40.3435 115.674 40.305 115.28 40.2444 115.02C40.2156 114.896 40.1864 114.823 40.1667 114.783C40.1571 114.764 40.1498 114.752 40.1457 114.747C40.1417 114.741 40.1395 114.739 40.139 114.738C40.1384 114.737 40.1368 114.736 40.1328 114.733C40.1286 114.73 40.1195 114.724 40.1033 114.715C40.0699 114.698 40.0045 114.67 39.8896 114.642C39.6456 114.583 39.2705 114.543 38.6854 114.543C38.6472 114.543 38.619 114.545 38.5991 114.548C38.5843 114.576 38.5625 114.625 38.5381 114.703C38.4783 114.894 38.4375 115.144 38.3998 115.483C38.3932 115.541 38.3863 115.608 38.3788 115.681C38.3566 115.898 38.3291 116.166 38.2906 116.406V133.086V134.586H36.7906H21H19.5V133.086V114.983C19.5 107.608 21.3079 102.919 23.6587 99.711C25.4412 97.2782 27.5685 95.7108 29.0666 94.6069C29.486 94.2978 29.8562 94.0251 30.1556 93.7799L54.877 86.1991ZM54.877 86.1991L54.1433 86.3659M54.877 86.1991L54.1433 86.3659M54.1433 86.3659C50.3064 87.2387 44.7391 88.772 39.9819 90.2122M54.1433 86.3659L39.9819 90.2122M39.9819 90.2122C37.6016 90.9328 35.4077 91.6351 33.7226 92.2248M39.9819 90.2122L33.7226 92.2248M33.7226 92.2248C32.8819 92.519 32.1521 92.7906 31.583 93.0266M33.7226 92.2248L31.583 93.0266M31.583 93.0266C31.2991 93.1443 31.0398 93.2594 30.8195 93.3697M31.583 93.0266L30.8195 93.3697M30.8195 93.3697C30.6241 93.4675 30.3691 93.6051 30.1556 93.7799L30.8195 93.3697ZM38.559 114.556C38.5588 114.556 38.5608 114.555 38.5655 114.554C38.5615 114.555 38.5591 114.556 38.559 114.556Z" fill="#FFE07D"/>
<path d="M54.877 86.1991L55.4495 86.6874L65.786 95.5044L74.9126 86.7463L75.5146 86.1686L76.323 86.3754C77.99 86.802 81.8003 87.8084 83.3834 88.3485L85.6331 89.1161L83.972 90.8164C83.6235 91.1731 83.2526 91.521 82.8675 91.8823C81.6778 92.9985 80.3519 94.2423 79.1302 96.2661C77.5559 98.8741 76.1879 102.799 76.1879 109.164C76.1879 122.113 82.5576 128.405 86.9877 131.909L90.3716 134.586H86.0571H41.8435H40.3435V133.086V116.276C40.3435 115.674 40.305 115.28 40.2444 115.02C40.2156 114.896 40.1864 114.823 40.1667 114.783C40.1571 114.764 40.1498 114.752 40.1457 114.747C40.1417 114.741 40.1395 114.739 40.139 114.738C40.1384 114.737 40.1368 114.736 40.1328 114.733C40.1286 114.73 40.1195 114.724 40.1033 114.715C40.0699 114.698 40.0045 114.67 39.8896 114.642C39.6456 114.583 39.2705 114.543 38.6854 114.543C38.6472 114.543 38.619 114.545 38.5991 114.548C38.5843 114.576 38.5625 114.625 38.5381 114.703C38.4783 114.894 38.4375 115.144 38.3998 115.483C38.3932 115.541 38.3863 115.608 38.3788 115.681C38.3566 115.898 38.3291 116.166 38.2906 116.406V133.086V134.586H36.7906H21H19.5V133.086V114.983C19.5 107.608 21.3079 102.919 23.6587 99.711C25.4412 97.2782 27.5685 95.7108 29.0666 94.6069C29.486 94.2978 29.8562 94.0251 30.1556 93.7799L54.877 86.1991ZM54.877 86.1991L54.1433 86.3659M54.877 86.1991L54.1433 86.3659M54.1433 86.3659C50.3064 87.2387 44.7391 88.772 39.9819 90.2122M54.1433 86.3659L39.9819 90.2122M39.9819 90.2122C37.6016 90.9328 35.4077 91.6351 33.7226 92.2248M39.9819 90.2122L33.7226 92.2248M33.7226 92.2248C32.8819 92.519 32.1521 92.7906 31.583 93.0266M33.7226 92.2248L31.583 93.0266M31.583 93.0266C31.2991 93.1443 31.0398 93.2594 30.8195 93.3697M31.583 93.0266L30.8195 93.3697M30.8195 93.3697C30.6241 93.4675 30.3691 93.6051 30.1556 93.7799L30.8195 93.3697ZM38.559 114.556C38.5588 114.556 38.5608 114.555 38.5655 114.554C38.5615 114.555 38.5591 114.556 38.559 114.556Z" stroke="black" stroke-width="3"/>
<path d="M54.877 86.1991L55.4495 86.6874L65.786 95.5044L74.9126 86.7463L75.5146 86.1686L76.323 86.3754C77.99 86.802 81.8003 87.8084 83.3834 88.3485L85.6331 89.1161L83.972 90.8164C83.6235 91.1731 83.2526 91.521 82.8675 91.8823C81.6778 92.9985 80.3519 94.2423 79.1302 96.2661C77.5559 98.8741 76.1879 102.799 76.1879 109.164C76.1879 122.113 82.5576 128.405 86.9877 131.909L90.3716 134.586H86.0571H41.8435H40.3435V133.086V116.276C40.3435 115.674 40.305 115.28 40.2444 115.02C40.2156 114.896 40.1864 114.823 40.1667 114.783C40.1571 114.764 40.1498 114.752 40.1457 114.747C40.1417 114.741 40.1395 114.739 40.139 114.738C40.1384 114.737 40.1368 114.736 40.1328 114.733C40.1286 114.73 40.1195 114.724 40.1033 114.715C40.0699 114.698 40.0045 114.67 39.8896 114.642C39.6456 114.583 39.2705 114.543 38.6854 114.543C38.6472 114.543 38.619 114.545 38.5991 114.548C38.5843 114.576 38.5625 114.625 38.5381 114.703C38.4783 114.894 38.4375 115.144 38.3998 115.483C38.3932 115.541 38.3863 115.608 38.3788 115.681C38.3566 115.898 38.3291 116.166 38.2906 116.406V133.086V134.586H36.7906H21H19.5V133.086V114.983C19.5 107.608 21.3079 102.919 23.6587 99.711C25.4412 97.2782 27.5685 95.7108 29.0666 94.6069C29.486 94.2978 29.8562 94.0251 30.1556 93.7799L54.877 86.1991ZM54.877 86.1991L54.1433 86.3659M54.877 86.1991L54.1433 86.3659M54.1433 86.3659C50.3064 87.2387 44.7391 88.772 39.9819 90.2122M54.1433 86.3659L39.9819 90.2122M39.9819 90.2122C37.6016 90.9328 35.4077 91.6351 33.7226 92.2248M39.9819 90.2122L33.7226 92.2248M33.7226 92.2248C32.8819 92.519 32.1521 92.7906 31.583 93.0266M33.7226 92.2248L31.583 93.0266M31.583 93.0266C31.2991 93.1443 31.0398 93.2594 30.8195 93.3697M31.583 93.0266L30.8195 93.3697M30.8195 93.3697C30.6241 93.4675 30.3691 93.6051 30.1556 93.7799L30.8195 93.3697ZM38.559 114.556C38.5588 114.556 38.5608 114.555 38.5655 114.554C38.5615 114.555 38.5591 114.556 38.559 114.556Z" stroke="black" stroke-opacity="0.2" stroke-width="3"/>
<path d="M41.5714 132.571V114.571C44.6149 125.886 73.6966 131.286 87.8571 132.571H41.5714Z" fill="#FFC250"/>
<path d="M54.943 90.6572L66.5805 99.1429L77.5716 90.6572" stroke="#FFC250" stroke-width="4" stroke-linecap="round"/>
<rect x="45.2143" y="14.0714" width="42.8571" height="64.7143" rx="21.4286" fill="#FFDCD5" stroke="black" stroke-width="3"/>
<path d="M59.5715 61.8571C62.097 65.836 69.1684 68.0465 73.7144 61.8571" stroke="black" stroke-width="3" stroke-linecap="round"/>
<circle cx="58.2857" cy="49" r="2.57143" fill="black"/>
<circle cx="75.0001" cy="49" r="2.57143" fill="black"/>
<path d="M90.4285 43.8571L90.0464 45.3077L92.1205 45.8539L91.922 43.7183L91.106 34.9386C90.0382 23.451 80.2277 14.6927 68.7212 14.6927C67.85 14.6927 66.9685 14.6256 66.1096 14.4923C54.8362 12.7426 44.3948 20.7881 43.2128 32.1351L42.008 43.7017L41.7779 45.9109L43.9131 45.2991L43.4999 43.8571C43.9131 45.2991 43.9136 45.299 43.9142 45.2988L43.9156 45.2984L43.9197 45.2972L43.9325 45.2935L43.9759 45.2807C44.0127 45.2697 44.0652 45.2539 44.1325 45.2331C44.267 45.1915 44.4609 45.1299 44.7076 45.0474C45.201 44.8824 45.9064 44.6334 46.7719 44.2924C48.5013 43.6109 50.879 42.5583 53.4853 41.0687C57.9045 38.543 63.069 34.7103 66.8028 29.2204C69.0611 34.5019 74.2357 38.2865 78.8677 40.7871C81.7254 42.3297 84.5111 43.4563 86.5777 44.1967C87.6129 44.5676 88.4724 44.8433 89.0764 45.0271C89.3784 45.1191 89.6169 45.1881 89.7819 45.2347C89.8643 45.2581 89.9284 45.2758 89.9729 45.2879L90.0249 45.3019L90.0395 45.3058L90.0439 45.307L90.0454 45.3074C90.046 45.3076 90.0464 45.3077 90.4285 43.8571Z" fill="#DE8A28" stroke="black" stroke-width="3"/>
<path d="M43.5 45C52.7 42.6 61.5 29 65 15L54 16.5L45.5 25.5C44.3333 30.1667 42.3 40.6 43.5 45Z" fill="#FFA945"/>
<path d="M97.5 135.5C111.337 135.5 122.5 124.053 122.5 110C122.5 95.9467 111.337 84.5 97.5 84.5C83.6633 84.5 72.5 95.9467 72.5 110C72.5 124.053 83.6633 135.5 97.5 135.5Z" fill="#B598E9" stroke="black" stroke-width="3"/>
<path d="M88 107.74C88 107.74 93.6416 117.525 94.8476 117.991C96.0535 118.457 109 101 109 101" stroke="black" stroke-width="3" stroke-linecap="round"/>
<path d="M55.7142 85.6429V77.9286C55.7142 77.9286 61.8595 80.5 65.9999 80.5C70.1404 80.5 76.2857 77.9286 76.2857 77.9286V85.6429L65.9999 94.6429L55.7142 85.6429Z" fill="#FFDCD5" stroke="black" stroke-width="3" stroke-linecap="round"/>
<path d="M42.5 45.5C41.6667 41.8333 41.2 32.3 46 23.5C50.8 14.7 61 13.8333 65.5 14.5" stroke="black" stroke-width="3"/>
</svg>
