<svg width="120" height="120" viewBox="0 0 150 150" fill="none" xmlns="http://www.w3.org/2000/svg">
<path d="M115.782 125.75C74.9105 155.552 41.6313 113.332 30.1006 88.4968L45.0018 84.2394L40.2121 78.9175L24.2466 50.7118H35.4225C26.9075 41.3099 11.3678 21.5481 17.3282 17.7164C23.2887 13.8847 40.9217 20.9095 54.0489 27.2957L49.7914 17.7164L85.9799 42.7291L90.7695 28.3601C116.137 48.4057 156.654 95.9474 115.782 125.75Z" fill="#FFE07D"/>
<path d="M115.782 125.75C74.9105 155.552 41.6312 113.332 30.1006 88.4968L45.0017 84.2393L40.2121 78.9175L24.2466 52.8406C43.4052 50.7118 18.9248 41.6648 17.3282 17.7164C19.5689 10.9942 34.8902 58.1624 45.0017 58.1624L58.3063 78.9175L65.7569 110.849L76.4006 122.024C101.768 142.07 156.654 95.9474 115.782 125.75Z" fill="#FFC250"/>
<circle cx="90.2373" cy="92.2221" r="35.6563" fill="#FFC250"/>
<path d="M85.9799 92.2221C85.9799 111.915 109.93 127.878 90.2373 127.878C70.5449 127.878 54.581 111.915 54.581 92.2221C54.581 72.5297 63.0943 65.0807 82.7868 65.0807C77.9971 83.175 80.1259 86.9003 85.9799 92.2221Z" fill="#FF9922"/>
<ellipse cx="89.173" cy="93.8187" rx="27.1414" ry="27.6735" fill="#FFF4D6"/>
<ellipse cx="89.173" cy="92.7543" rx="21.8195" ry="22.3517" fill="white"/>
<path d="M40.2121 78.3853C32.3572 69.2213 25.5758 56.8368 23.3888 52.675C23.043 52.017 23.5247 51.244 24.2681 51.244H31.2131C32.0516 51.244 32.5221 50.2716 32.0118 49.6063C25.5064 41.1264 15.1076 25.0971 16.7176 17.0023C16.7634 16.772 16.8867 16.5766 17.0949 16.4682C23.8524 12.9518 61.3665 30.3392 64.1604 32.0854" stroke="black" stroke-width="3" stroke-linecap="round"/>
<path d="M50.8558 17.7164L84.9034 40.4148C85.4481 40.778 86.1889 40.5285 86.4031 39.9099L90.2993 28.6541C90.5272 27.9958 91.3275 27.755 91.8614 28.2027C116.878 49.1822 153.729 93.7317 118.443 123.621C74.3454 160.974 33.7879 103.247 30.7893 87.5008C30.6746 86.8984 31.1855 86.412 31.7985 86.4282C36.8035 86.5606 40.8578 85.0632 42.3408 84.2394" stroke="black" stroke-width="3" stroke-linecap="round"/>
<path d="M83.8511 50.7118C75.1218 46.8508 56.988 40.0031 50.7366 41.8047C50.1945 41.9609 50.0393 42.5934 50.3376 43.0723C53.5979 48.3073 56.3877 52.9498 57.9566 55.5994C58.3499 56.2635 57.8693 57.098 57.0975 57.098H45.1433C44.3722 57.098 43.8912 57.934 44.2788 58.6006L56.7098 79.9819" stroke="black" stroke-width="3" stroke-linecap="round"/>
<circle cx="89.7052" cy="92.7543" r="34.6885" stroke="black" stroke-width="3"/>
<path d="M67.8856 109.784C62.5638 104.995 55.7519 85.1974 71.0787 71.9992C83.319 61.4589 100.349 68.2739 105.138 71.9992" stroke="black" stroke-width="3" stroke-linecap="round"/>
<path d="M73.8896 114.499C78.9959 119.517 99.1726 125.106 111.409 109C121.18 96.1382 113.336 79.557 109.325 75.0042" stroke="black" stroke-width="3" stroke-linecap="round"/>
<rect x="86.5121" y="71.467" width="3.1931" height="6.3862" rx="1.59655" fill="black"/>
<rect x="72.9448" y="90.7154" width="3.1931" height="6.3862" rx="1.59655" transform="rotate(81.7359 72.9448 90.7154)" fill="black"/>
<rect x="89.6947" y="114.279" width="3.1931" height="6.3862" rx="1.59655" transform="rotate(-175.353 89.6947 114.279)" fill="black"/>
<circle cx="89.173" cy="93.2865" r="5.85402" fill="black"/>
<path d="M76.9328 80.5141L89.173 94.3509L109.396 93.2865" stroke="black" stroke-width="3" stroke-linecap="round"/>
<circle cx="89.173" cy="93.2865" r="3.72528" fill="#B598E9"/>
</svg>
