<svg width="120" height="120" viewBox="0 0 150 150" fill="none" xmlns="http://www.w3.org/2000/svg">
<path d="M112.72 52.7128C112.72 66.6949 105.056 78.8871 93.7003 85.318C91.5159 86.555 90.7285 97.2896 89.5398 100.261C81.9872 104.334 65.6134 100.261 61.605 100.261C55.627 100.261 61.605 88.9686 58.6332 86.2651C46.3038 80.1379 37.8307 67.4149 37.8307 52.7128C37.8307 32.0328 54.5952 15.2684 75.2752 15.2684C95.9552 15.2684 112.72 32.0328 112.72 52.7128Z" fill="#FFE07D"/>
<path d="M49.1235 52.7128C49.1235 66.6949 58.6332 86.2651 89.5398 100.261C90.7285 97.2896 85.3793 109.261 89.5398 100.261C81.9872 104.334 65.6134 100.261 61.605 100.261C55.627 100.261 61.605 88.9686 58.6332 86.2651C46.3038 80.1379 37.8307 67.4149 37.8307 52.7128C37.8307 32.0328 54.5952 15.2684 75.2752 15.2684C52.6896 25.9668 49.1235 32.0328 49.1235 52.7128Z" fill="#FFC250"/>
<path d="M77.6526 15.8627C86.7661 15.6646 110.342 21.8063 113.314 49.1467M72.3034 15.8627C63.1899 15.6646 39.6138 21.8063 36.642 49.1467C35.4533 58.8545 37.2363 75.2984 57.4445 87.7799C59.3691 88.9686 58.8313 98.8746 58.6332 100.261H90.7285V96.6952C91.3228 93.1291 90.7285 90.2422 94.2946 87.1855C103.21 79.5438 109.748 78.2702 113.314 56.279M87.1623 27.7499C94.2946 30.1273 99.6438 35.4765 103.21 46.1749" stroke="#090808" stroke-width="3" stroke-linecap="round"/>
<rect x="23.4937" y="36.6652" width="9.50971" height="3.56614" rx="1.78307" transform="rotate(18.2408 23.4937 36.6652)" fill="#0C0C0C"/>
<rect width="9.50971" height="3.56614" rx="1.78307" transform="matrix(-0.949749 0.313011 0.313011 0.949749 126.506 36.6652)" fill="#0C0C0C"/>
<rect width="28.5291" height="3.56614" rx="1.78307" transform="matrix(-1 -8.74228e-08 -8.74228e-08 1 88.9454 56.8734)" fill="#0C0C0C"/>
<path d="M70.2231 99.667C71.372 99.667 72.3034 98.7408 72.3034 97.5919C72.3034 94.3331 72.3034 87.8973 72.3034 83.1432C72.3034 82.286 72.1045 81.4253 71.5682 80.7567C69.928 78.7122 67.5485 77.5079 67.5485 76.4871C67.5485 71.3602 67.5485 61.1163 67.5485 56.9335C67.5485 55.8744 66.7698 54.979 65.7213 54.8292C64.473 54.6509 63.3461 55.5876 63.307 56.848C63.1679 61.3254 62.9396 71.1056 63.388 76.4871C63.5945 78.9642 66.0551 80.8568 67.3823 82.1298C67.9425 82.6671 68.1429 83.427 68.1429 84.2032C68.1429 88.2501 68.1429 94.4046 68.1429 97.5917C68.1429 98.7405 69.0742 99.667 70.2231 99.667Z" fill="#0C0C0C"/>
<path d="M79.1385 99.667C77.9896 99.667 77.0582 98.7408 77.0582 97.5919C77.0582 94.3331 77.0582 87.8973 77.0582 83.1432C77.0582 82.286 77.2571 81.4253 77.7935 80.7567C79.4336 78.7122 81.8131 77.5079 81.8131 76.4871C81.8131 71.3602 81.8131 61.1163 81.8131 56.9335C81.8131 55.8744 82.5919 54.979 83.6403 54.8292C84.8887 54.6509 86.0155 55.5876 86.0547 56.848C86.1938 61.3254 86.4221 71.1056 85.9736 76.4871C85.7672 78.9642 83.3065 80.8568 81.9793 82.1298C81.4191 82.6671 81.2187 83.427 81.2187 84.2032C81.2187 88.2501 81.2187 94.4046 81.2187 97.5917C81.2187 98.7405 80.2874 99.667 79.1385 99.667Z" fill="#0C0C0C"/>
<rect x="20.206" y="50.9297" width="9.50971" height="3.56614" rx="1.78307" transform="rotate(3.31063 20.206 50.9297)" fill="#0C0C0C"/>
<rect width="9.50971" height="3.56614" rx="1.78307" transform="matrix(-0.998331 0.0577493 0.0577493 0.998331 129.794 50.9297)" fill="#0C0C0C"/>
<rect x="22.1505" y="64.7555" width="9.50971" height="3.56614" rx="1.78307" transform="rotate(-19.246 22.1505 64.7555)" fill="#0C0C0C"/>
<rect width="9.50971" height="3.56614" rx="1.78307" transform="matrix(-0.944112 -0.329625 -0.329625 0.944112 127.85 64.7555)" fill="#0C0C0C"/>
<circle cx="74.6808" cy="128.196" r="7.13228" fill="#B598E9"/>
<path d="M72.3034 127.602C72.3034 131.541 78.6199 135.328 74.6808 135.328C70.7418 135.328 67.5485 132.135 67.5485 128.196C67.5485 124.257 70.7418 121.658 74.6808 121.658C78.6199 121.658 72.3034 123.663 72.3034 127.602Z" fill="#8166B1"/>
<circle cx="74.6808" cy="128.196" r="7.44357" stroke="black" stroke-width="3"/>
<rect x="58.0388" y="102.044" width="33.284" height="4.75485" rx="1" fill="#EBEBEB"/>
<rect x="58.0388" y="111.554" width="33.284" height="4.75485" rx="1" fill="#EBEBEB"/>
<rect x="61.605" y="121.064" width="26.1517" height="4.75485" rx="1" fill="#EBEBEB"/>
<path d="M58.0388 104.422H91.3228V105.799C91.3228 106.352 90.8751 106.799 90.3228 106.799H59.0388C58.4865 106.799 58.0388 106.352 58.0388 105.799V104.422Z" fill="#C7C3C3"/>
<path d="M58.0388 113.932H91.3228V115.309C91.3228 115.861 90.8751 116.309 90.3228 116.309H59.0388C58.4865 116.309 58.0388 115.861 58.0388 115.309V113.932Z" fill="#C7C3C3"/>
<path d="M61.605 123.441H87.7567V124.819C87.7567 125.371 87.309 125.819 86.7567 125.819H62.605C62.0527 125.819 61.605 125.371 61.605 124.819V123.441Z" fill="#C7C3C3"/>
<rect x="56.5388" y="100.544" width="36.284" height="7.75485" rx="2.5" stroke="black" stroke-width="3"/>
<rect x="56.5388" y="110.054" width="36.284" height="7.75485" rx="2.5" stroke="black" stroke-width="3"/>
<rect x="60.105" y="119.564" width="29.1517" height="7.75485" rx="2.5" stroke="black" stroke-width="3"/>
</svg>
