<svg width="37" height="43" viewBox="0 0 74 86" fill="none" xmlns="http://www.w3.org/2000/svg">
<path d="M7.5 69L0.5 64.5V26.5C11.5127 32.6542 33.1323 44.694 33.9796 45.0033C33.9862 44.9942 33.993 44.993 34 45C34.0113 45.0113 34.0043 45.0123 33.9796 45.0033C33.6081 45.514 33.8362 71.0637 34 84L26.5 79.5V50.5L7.5 39.5V69Z" fill="white"/>
<path d="M7.5 69L0.5 64.5V26.5C11.8333 32.8333 34.4 45.4 34 45C33.6 44.6 33.8333 70.8333 34 84L26.5 79.5V50.5L7.5 39.5V69Z" stroke="white"/>
<path d="M62.5 17L55 21L36.5 10C30.1667 13.6667 17.6 21 18 21C18.4 21 37.8333 32.6667 47.5 38.5V71.5L66 60.5V32L51.5 40.5V35.5L47.5 33L69.5 21L73.5 23.5V64.5L39 84.5V42L2.5 21L37 1.5L62.5 17Z" fill="white" stroke="white"/>
</svg>
